HIERARCHY
ROOT Hips
{
	OFFSET 0.00000 0.00000 0.00000
	CHANNELS 6 Xposition Yposition Zposition Zrotation Yrotation Xrotation 
	JOINT LHipJoint
	{
		OFFSET 0 0 0
		CHANNELS 3 Zrotation Yrotation Xrotation
		JOINT LeftUpLeg
		{
			OFFSET 1.48416 -1.82041 0.59464
			CHANNELS 3 Zrotation Yrotation Xrotation
			JOINT LeftLeg
			{
				OFFSET 2.43280 -6.68407 0.00000
				CHANNELS 3 Zrotation Yrotation Xrotation
				JOINT LeftFoot
				{
					OFFSET 2.68325 -7.37216 0.00000
					CHANNELS 3 Zrotation Yrotation Xrotation
					JOINT LeftToeBase
					{
						OFFSET 0.15365 -0.42214 1.91990
						CHANNELS 3 Zrotation Yrotation Xrotation
						End Site
						{
							OFFSET 0.00000 -0.00000 0.99320
						}
					}
				}
			}
		}
	}
	JOINT RHipJoint
	{
		OFFSET 0 0 0
		CHANNELS 3 Zrotation Yrotation Xrotation
		JOINT RightUpLeg
		{
			OFFSET -1.70852 -1.82040 0.59464
			CHANNELS 3 Zrotation Yrotation Xrotation
			JOINT RightLeg
			{
				OFFSET -2.50396 -6.87957 0.00000
				CHANNELS 3 Zrotation Yrotation Xrotation
				JOINT RightFoot
				{
					OFFSET -2.67204 -7.34139 0.00000
					CHANNELS 3 Zrotation Yrotation Xrotation
					JOINT RightToeBase
					{
						OFFSET -0.17346 -0.47657 2.02009
						CHANNELS 3 Zrotation Yrotation Xrotation
						End Site
						{
							OFFSET -0.00000 -0.00000 1.04609
						}
					}
				}
			}
		}
	}
	JOINT LowerBack
	{
		OFFSET 0 0 0
		CHANNELS 3 Zrotation Yrotation Xrotation
		JOINT Spine
		{
			OFFSET -0.01022 1.99636 -0.30653
			CHANNELS 3 Zrotation Yrotation Xrotation
			JOINT Spine1
			{
				OFFSET -0.01683 2.01212 0.04808
				CHANNELS 3 Zrotation Yrotation Xrotation
				JOINT Neck
				{
					OFFSET 0 0 0
					CHANNELS 3 Zrotation Yrotation Xrotation
					JOINT Neck1
					{
						OFFSET -0.03080 1.91178 0.03911
						CHANNELS 3 Zrotation Yrotation Xrotation
						JOINT Head
						{
							OFFSET 0.10605 1.89839 -0.23433
							CHANNELS 3 Zrotation Yrotation Xrotation
							End Site
							{
								OFFSET 0.03474 1.92469 -0.08609
							}
						}
					}
				}
				JOINT LeftShoulder
				{
					OFFSET 0 0 0
					CHANNELS 3 Zrotation Yrotation Xrotation
					JOINT LeftArm
					{
						OFFSET 3.78977 1.27972 -0.24661
						CHANNELS 3 Zrotation Yrotation Xrotation
						JOINT LeftForeArm
						{
							OFFSET 5.64147 -0.00000 -0.00000
							CHANNELS 3 Zrotation Yrotation Xrotation
							JOINT LeftHand
							{
								OFFSET 2.86444 -0.00000 -0.00000
								CHANNELS 3 Zrotation Yrotation Xrotation
								JOINT LeftFingerBase
								{
									OFFSET 0 0 0
									CHANNELS 3 Zrotation Yrotation Xrotation
									JOINT LeftHandIndex1
									{
										OFFSET 0.72212 -0.00000 -0.00000
										CHANNELS 3 Zrotation Yrotation Xrotation
										End Site
										{
											OFFSET 0.58219 -0.00000 -0.00000
										}
									}
								}
								JOINT LThumb
								{
									OFFSET 0 0 0
									CHANNELS 3 Zrotation Yrotation Xrotation
									End Site
									{
										OFFSET 0.59108 -0.00000 0.59108
									}
								}
							}
						}
					}
				}
				JOINT RightShoulder
				{
					OFFSET 0 0 0
					CHANNELS 3 Zrotation Yrotation Xrotation
					JOINT RightArm
					{
						OFFSET -3.41176 1.18605 -0.57927
						CHANNELS 3 Zrotation Yrotation Xrotation
						JOINT RightForeArm
						{
							OFFSET -5.44729 -0.00000 -0.00000
							CHANNELS 3 Zrotation Yrotation Xrotation
							JOINT RightHand
							{
								OFFSET -3.08821 -0.00000 -0.00000
								CHANNELS 3 Zrotation Yrotation Xrotation
								JOINT RightFingerBase
								{
									OFFSET 0 0 0
									CHANNELS 3 Zrotation Yrotation Xrotation
									JOINT RightHandIndex1
									{
										OFFSET -0.82105 -0.00000 -0.00000
										CHANNELS 3 Zrotation Yrotation Xrotation
										End Site
										{
											OFFSET -0.66195 -0.00000 -0.00000
										}
									}
								}
								JOINT RThumb
								{
									OFFSET 0 0 0
									CHANNELS 3 Zrotation Yrotation Xrotation
									End Site
									{
										OFFSET -0.67206 -0.00000 0.67206
									}
								}
							}
						}
					}
				}
			}
		}
	}
}
MOTION
Frames: 13
Frame Time: .0083333
3.2472 17.7754 0.3551 -20.7631 87.9819 -20.1482 0.0000 0.0000 0.0000 0.0000 0.0000 0.0000 0.0000 0.0000 0.0000 0.0000 0.0000 0.0000 0.0000 0.0000 0.0000 0.0000 0.0000 0.0000 19.4207 1.5716 0.2250 -0.5634 -4.8076 13.3606 -0.6836 4.5596 -14.7430 -0.1577 2.5589 -7.0529 2.7012 -0.0757 1.5705 -0.7450 -0.0604 0.5436 -2.2774 -0.0274 -0.3269 -5.1786 -5.2417 -3.8633 7.9809 -7.0368 3.1096 3.2881 -3.3891 2.2116 -0.0000 0.0000 0.0000 -84.1973 3.2841 32.1662 8.4602 -14.2961 -1.0629 -0.0000 0.0000 -13.2185 4.5527 10.5068 0.8319 -7.1250 0.0000 -0.0000 -19.5108 39.7401 2.6468 -0.0000 0.0000 0.0000 83.9047 -3.2551 26.3940 -14.4718 23.4051 -3.0130 0.0000 0.0000 23.0028 -1.1349 11.6411 -0.2290 7.1250 -0.0000 -0.0000 18.0428 -18.6191 11.9434
3.2503 17.7821 0.3570 -19.0857 88.0420 -18.4969 0.0000 0.0000 0.0000 0.0000 0.0000 0.0000 0.0000 0.0000 0.0000 0.0000 0.0000 0.0000 0.0000 0.0000 0.0000 0.0000 0.0000 0.0000 19.3392 1.6094 0.2084 -0.5688 -4.8302 13.4250 -0.6894 4.5293 -14.8080 -0.1485 2.4831 -6.8429 2.6193 -0.0840 1.5996 -0.7916 -0.0721 0.5772 -2.2791 -0.0325 -0.3094 -5.1053 -5.2337 -3.8607 7.9855 -7.0285 3.0865 3.2764 -3.3840 2.1996 0.0000 0.0000 0.0000 -84.2530 3.6593 31.4702 8.5745 -14.4797 -1.0913 -0.0000 0.0000 -13.1537 4.6165 10.3739 0.8330 -7.1250 0.0000 -0.0000 -19.4191 39.6198 2.6936 0.0000 0.0000 0.0000 84.1067 -3.4993 25.5077 -14.2560 23.0994 -2.9278 0.0000 0.0000 22.8547 -1.1533 11.5599 -0.2311 7.1250 -0.0000 -0.0000 18.0387 -18.6960 11.9078
3.2519 17.7821 0.3590 -18.8577 88.0222 -18.2889 0.0000 0.0000 0.0000 0.0000 0.0000 0.0000 0.0000 0.0000 0.0000 0.0000 0.0000 0.0000 0.0000 0.0000 0.0000 0.0000 0.0000 0.0000 19.3408 1.5602 0.1958 -0.5712 -4.8400 13.4528 -0.6854 4.5600 -14.7624 -0.1568 2.5511 -7.0314 2.6223 -0.0647 1.6231 -0.8211 -0.0458 0.5855 -2.3115 -0.0192 -0.3125 -5.0948 -5.2311 -3.7967 8.0640 -7.0296 3.0742 3.3030 -3.3838 2.1875 0.0000 -0.0000 0.0000 -84.2450 4.1292 31.3410 8.8218 -14.8760 -1.1540 -0.0000 0.0000 -13.6994 4.8412 10.4604 0.8810 -7.1250 0.0000 -0.0000 -19.2567 39.7201 2.6191 0.0000 -0.0000 0.0000 84.3477 -3.8160 24.5001 -14.1582 22.9604 -2.8895 0.0000 0.0000 22.8166 -0.9098 11.2292 -0.1772 7.1250 -0.0000 -0.0000 18.2371 -19.0148 11.9161
3.2525 17.7761 0.3631 -20.4983 87.9553 -19.9241 0.0000 0.0000 0.0000 0.0000 0.0000 0.0000 0.0000 0.0000 0.0000 0.0000 0.0000 0.0000 0.0000 0.0000 0.0000 0.0000 0.0000 0.0000 19.4584 1.5482 0.2423 -0.5670 -4.8227 13.4034 -0.6845 4.5488 -14.7525 -0.2026 2.8985 -7.9963 2.6271 -0.0378 1.6260 -0.7914 -0.0096 0.5978 -2.2844 -0.0008 -0.2994 -5.1110 -5.2297 -3.7884 8.1236 -7.0298 3.0821 3.3269 -3.3826 2.1924 0.0000 -0.0000 0.0000 -84.2952 4.5672 31.2642 9.1167 -15.3462 -1.2308 -0.0000 0.0000 -14.5283 5.1081 10.6605 0.9474 -7.1250 0.0000 -0.0000 -19.0914 39.9319 2.4903 0.0000 -0.0000 0.0000 84.5252 -4.0841 23.4967 -14.0855 22.8569 -2.8612 0.0000 0.0000 22.8331 -0.9071 11.0133 -0.1733 7.1250 -0.0000 -0.0000 18.2619 -19.2199 11.8455
3.2526 17.7724 0.3653 -21.8495 87.9742 -21.2931 0.0000 0.0000 0.0000 0.0000 0.0000 0.0000 0.0000 0.0000 0.0000 0.0000 0.0000 0.0000 0.0000 0.0000 0.0000 0.0000 0.0000 0.0000 19.5150 1.5235 0.3424 -0.5585 -4.7868 13.3014 -0.6836 4.5539 -14.7430 -0.2057 2.9202 -8.0566 2.6516 -0.0301 1.6739 -0.7996 0.0022 0.6007 -2.3068 0.0049 -0.3225 -5.0584 -5.2397 -3.7102 8.1268 -7.0443 3.0128 3.3193 -3.3914 2.1538 0.0000 0.0000 0.0000 -84.3530 4.9985 31.1213 9.4169 -15.8223 -1.3115 -0.0000 0.0000 -15.5535 5.5302 10.8276 1.0420 -7.1250 0.0000 -0.0000 -18.7857 40.1260 2.3530 0.0000 0.0000 0.0000 84.7149 -4.4231 22.6495 -14.0774 22.8453 -2.8581 0.0000 0.0000 22.7329 -0.9462 10.8550 -0.1782 7.1250 -0.0000 -0.0000 18.2525 -19.3697 11.7739
3.2539 17.7714 0.3674 -24.0535 87.9610 -23.5212 0.0000 0.0000 0.0000 0.0000 0.0000 0.0000 0.0000 0.0000 0.0000 0.0000 0.0000 0.0000 0.0000 0.0000 0.0000 0.0000 0.0000 0.0000 19.6176 1.5298 0.4446 -0.5506 -4.7533 13.2063 -0.6854 4.4768 -14.7668 -0.2190 3.0124 -8.3132 2.7289 -0.0233 1.7260 -0.8026 0.0140 0.6085 -2.3536 0.0107 -0.3429 -5.0061 -5.2423 -3.6877 8.1228 -7.0500 3.0014 3.3084 -3.3942 2.1436 -0.0000 0.0000 0.0000 -84.4020 5.4293 31.1236 9.7325 -16.3201 -1.3988 -0.0000 0.0000 -16.8620 6.1869 10.8046 1.1642 -7.1250 0.0000 -0.0000 -18.2269 40.1600 2.2614 -0.0000 0.0000 0.0000 84.9068 -4.7335 21.9186 -14.0695 22.8340 -2.8550 0.0000 0.0000 22.5456 -1.0827 10.6998 -0.2010 7.1250 -0.0000 -0.0000 18.1768 -19.5148 11.6571
3.2561 17.7705 0.3680 -23.3802 87.9976 -22.8904 0.0000 0.0000 0.0000 0.0000 0.0000 0.0000 0.0000 0.0000 0.0000 0.0000 0.0000 0.0000 0.0000 0.0000 0.0000 0.0000 0.0000 0.0000 19.5772 1.4715 0.5114 -0.5473 -4.7393 13.1665 -0.6836 4.4647 -14.7475 -0.2317 3.0979 -8.5513 2.6969 -0.0229 1.7827 -0.8244 0.0155 0.6169 -2.3580 0.0112 -0.3660 -5.0276 -5.2546 -3.6454 8.1472 -7.0683 3.0086 3.3210 -3.4038 2.1419 0.0000 0.0000 0.0000 -84.4965 5.7704 30.8409 9.9721 -16.6960 -1.4669 -0.0000 0.0000 -17.7353 6.6370 10.7545 1.2438 -7.1250 0.0000 -0.0000 -17.8337 40.1504 2.2132 0.0000 0.0000 0.0000 85.0860 -5.0594 21.1478 -14.0900 22.8632 -2.8630 0.0000 0.0000 22.3922 -1.1286 10.6371 -0.2083 7.1250 -0.0000 -0.0000 18.1524 -19.5737 11.6145
3.2588 17.7688 0.3684 -21.6760 88.0534 -21.2118 0.0000 0.0000 0.0000 0.0000 0.0000 0.0000 0.0000 0.0000 0.0000 0.0000 0.0000 0.0000 0.0000 0.0000 0.0000 0.0000 0.0000 0.0000 19.4892 1.4087 0.5379 -0.5470 -4.7384 13.1639 -0.6853 4.5313 -14.7629 -0.2132 2.9727 -8.2028 2.5974 -0.0266 1.8068 -0.8388 0.0095 0.6185 -2.3168 0.0081 -0.3783 -5.0808 -5.2689 -3.6343 8.1995 -7.0907 3.0697 3.3483 -3.4139 2.1671 -0.0000 -0.0000 0.0000 -84.5896 6.1327 30.2269 10.2441 -17.1205 -1.5460 -0.0000 0.0000 -17.8789 6.5404 10.8371 1.2349 -7.1250 0.0000 -0.0000 -17.9383 40.2211 2.1947 -0.0000 -0.0000 0.0000 85.1892 -5.3829 20.5703 -14.1307 22.9212 -2.8788 0.0000 0.0000 22.1401 -1.1797 10.7074 -0.2192 7.1250 -0.0000 -0.0000 18.1101 -19.5060 11.6135
3.2603 17.7679 0.3702 -22.0206 88.0856 -21.5667 0.0000 0.0000 0.0000 0.0000 0.0000 0.0000 0.0000 0.0000 0.0000 0.0000 0.0000 0.0000 0.0000 0.0000 0.0000 0.0000 0.0000 0.0000 19.4940 1.3848 0.5147 -0.5525 -4.7615 13.2295 -0.6903 4.5960 -14.8150 -0.1947 2.8414 -7.8374 2.5645 -0.0254 1.8186 -0.8321 0.0109 0.6333 -2.2915 0.0091 -0.3697 -5.1127 -5.2729 -3.6959 8.2285 -7.0983 3.1493 3.3625 -3.4150 2.2085 0.0000 0.0000 0.0000 -84.6744 6.4533 29.7269 10.5638 -17.6167 -1.6415 -0.0000 0.0000 -17.9317 6.3528 10.9948 1.2164 -7.1250 0.0000 -0.0000 -18.1411 40.3557 2.1588 0.0000 0.0000 0.0000 85.3088 -5.6311 19.9932 -14.1718 22.9797 -2.8948 0.0000 0.0000 21.9070 -1.2773 10.6435 -0.2360 7.1250 -0.0000 -0.0000 18.0507 -19.5651 11.5460
3.2597 17.7678 0.3715 -21.2785 88.1298 -20.8286 0.0000 0.0000 0.0000 0.0000 0.0000 0.0000 0.0000 0.0000 0.0000 0.0000 0.0000 0.0000 0.0000 0.0000 0.0000 0.0000 0.0000 0.0000 19.4570 1.3828 0.4657 -0.5595 -4.7910 13.3135 -0.6941 4.5839 -14.8562 -0.2085 2.9402 -8.1123 2.4996 -0.0233 1.8698 -0.8376 0.0139 0.6217 -2.2608 0.0099 -0.4101 -5.0841 -5.2758 -3.7247 8.1682 -7.1032 3.1983 3.3351 -3.4173 2.2259 0.0000 0.0000 0.0000 -84.7402 6.7866 29.4465 10.8564 -18.0678 -1.7311 -0.0000 0.0000 -18.1422 6.3890 11.0927 1.2342 -7.1250 0.0000 -0.0000 -18.1384 40.4521 2.1135 0.0000 0.0000 0.0000 85.4614 -5.8922 19.4058 -14.2212 23.0501 -2.9142 0.0000 0.0000 21.6474 -1.4833 10.6072 -0.2731 7.1250 -0.0000 -0.0000 17.9146 -19.5961 11.4364
3.2588 17.7656 0.3727 -19.2807 88.1763 -18.8674 0.0000 0.0000 0.0000 0.0000 0.0000 0.0000 0.0000 0.0000 0.0000 0.0000 0.0000 0.0000 0.0000 0.0000 0.0000 0.0000 0.0000 0.0000 19.3743 1.3708 0.4681 -0.5640 -4.8101 13.3677 -0.6918 4.6094 -14.8307 -0.2118 2.9631 -8.1760 2.4224 -0.0104 1.9617 -0.8742 0.0318 0.6087 -2.2555 0.0179 -0.4740 -5.0457 -5.2860 -3.7128 8.1556 -7.1197 3.2194 3.3230 -3.4251 2.2295 0.0000 -0.0000 0.0000 -84.7893 7.0739 29.1735 11.1179 -18.4687 -1.8131 -0.0000 0.0000 -18.2745 6.6345 11.1653 1.2903 -7.1250 0.0000 -0.0000 -17.9516 40.5429 2.0482 0.0000 -0.0000 0.0000 85.6198 -6.2005 19.0001 -14.3076 23.1727 -2.9481 0.0000 0.0000 21.3123 -1.8016 10.5652 -0.3304 7.1250 -0.0000 -0.0000 17.7024 -19.6306 11.2723
3.2575 17.7653 0.3749 -18.4896 88.2219 -18.0894 0.0000 0.0000 0.0000 0.0000 0.0000 0.0000 0.0000 0.0000 0.0000 0.0000 0.0000 0.0000 0.0000 0.0000 0.0000 0.0000 0.0000 0.0000 19.3403 1.3515 0.4543 -0.5679 -4.8266 13.4145 -0.6926 4.5909 -14.8400 -0.2116 2.9618 -8.1726 2.3645 -0.0185 2.0007 -0.8847 0.0209 0.6137 -2.2336 0.0123 -0.4914 -5.0415 -5.2760 -3.6823 8.1498 -7.1057 3.1926 3.3216 -3.4193 2.2134 -0.0000 0.0000 0.0000 -84.8556 7.2859 28.9863 11.3948 -18.8909 -1.9018 -0.0000 0.0000 -18.6118 6.9607 11.1878 1.3570 -7.1250 0.0000 -0.0000 -17.6817 40.5930 1.9925 -0.0000 0.0000 0.0000 85.7123 -6.4481 18.8567 -14.4304 23.3466 -2.9966 0.0000 0.0000 20.8304 -1.9342 10.4212 -0.3500 7.1250 -0.0000 -0.0000 17.6270 -19.7655 11.1630
3.2570 17.7679 0.3768 -18.9122 88.2665 -18.4825 0.0000 0.0000 0.0000 0.0000 0.0000 0.0000 0.0000 0.0000 0.0000 0.0000 0.0000 0.0000 0.0000 0.0000 0.0000 0.0000 0.0000 0.0000 19.3506 1.3384 0.3983 -0.5715 -4.8415 13.4569 -0.6939 4.5719 -14.8554 -0.2165 2.9951 -8.2652 2.3634 -0.0060 2.0084 -0.9009 0.0376 0.5934 -2.2499 0.0201 -0.5155 -5.0281 -5.2884 -3.7304 8.1296 -7.1273 3.3082 3.3097 -3.4277 2.2606 0.0000 0.0000 0.0000 -84.8939 7.4958 28.9035 11.6798 -19.3227 -1.9951 -0.0000 0.0000 -18.9746 7.0891 11.1337 1.3757 -7.1250 0.0000 -0.0000 -17.5575 40.5523 1.9957 0.0000 0.0000 0.0000 85.8666 -6.6969 18.5609 -14.5812 23.5594 -3.0566 0.0000 0.0000 20.3665 -1.8614 10.1686 -0.3287 7.1250 -0.0000 -0.0000 17.7034 -20.0075 11.1148
